<svg width="96" height="81" viewBox="0 0 96 81" fill="none" xmlns="http://www.w3.org/2000/svg">
<path d="M89.7033 14.9271C94.2325 18.3403 97.4144 23.9166 95.3648 27.5895C93.8307 30.3046 76.0912 65.6497 67.0449 71.7658C56.4118 78.9655 13.0675 80.0451 12.1827 80.0897C9.86533 80.2033 1.07474 67.2812 0.307693 58.9857C-0.366013 51.7536 3.09989 44.6066 3.33528 43.5636C3.57067 42.5206 25.4904 46.4045 25.4904 46.4045L42.3898 67.3543L89.7033 14.9271Z" fill="#3B3B4D"/>
<path d="M2.08131 43.1739C-5.58916 64.7892 10.2266 77.8534 12.7185 77.6707C41.0506 75.7592 55.2511 74.3185 61.627 71.372C68.0028 68.4256 97.7472 31.7696 93.563 20.5115C90.2797 11.6316 69.0905 0 69.0905 0C69.0905 0 55.6286 39.9839 46.9394 40.406C38.2503 40.8281 3.68035 38.673 2.08131 43.1739Z" fill="#545466"/>
<path d="M69.7559 4.69971C75.3078 10.1056 91.0059 18.3564 90.8598 22.2322C90.3688 33.88 67.0286 64.773 65.7623 62.5327C64.4961 60.2924 50.673 41.7088 52.4344 40.1625C57.7104 35.4831 69.7559 4.69971 69.7559 4.69971Z" fill="white"/>
<path d="M47.0975 43.186C51.509 55.3857 60.4904 63.5675 58.9725 65.5075C57.4547 67.4474 29.013 73.1333 27.1543 71.1325C25.2955 69.1317 14.707 43.9774 15.5998 43.1292C16.4927 42.2809 47.0975 43.186 47.0975 43.186Z" fill="#3B3B4D"/>
<path d="M15.9085 52.5773C17.3005 59.1764 21.2453 63.9045 19.6301 65.1139C18.0148 66.3233 9.04562 68.1577 8.18523 67.3095C7.32484 66.4613 3.60327 56.7575 5.17795 53.1049C5.83542 51.5546 14.7599 47.1228 15.9085 52.5773Z" fill="#3B3B4D"/>
</svg>
